#!OML:ASF F:\VICON\USERDATA\INSTALL\rory3\rory3.ASF
:FULLY-SPECIFIED
:DEGREES
1531
root -3.11622 17.6039 -2.15559 15.9689 3.17908 6.90998
lowerback 12.2852 -2.47772 -2.99073
upperback 6.58923 -3.49015 4.92098
thorax 0.557921 -1.9178 7.26712
lowerneck -10.8923 -5.63654 -9.64127
upperneck 31.7294 -8.84063 9.21292
head 13.3305 -3.88975 3.99896
rclavicle 1.51076e-014 -2.06736e-014
rhumerus 12.0632 -32.0808 -73.0481
rradius 36.7373
rwrist -9.25693
rhand -36.1625 -22.815
rfingers 7.12502
rthumb -9.26658 -52.5913
lclavicle 1.51076e-014 -2.06736e-014
lhumerus 25.0127 -61.9182 82.2321
lradius 57.3225
lwrist 42.9257
lhand -13.3018 45.0528
lfingers 7.12502
lthumb 12.8023 -1005.36
rfemur -40.8192 -1.24848 2.06746
rtibia 29.9504
rfoot -7.36496 -5.45235
rtoes 4.60982
lfemur -25.9848 -9.23173 -21.8091
ltibia 25.6985
lfoot -13.8057 -22.51
ltoes -1.70772
1532
root -3.1996 17.6094 -2.11697 16.1811 3.84046 6.73022
lowerback 12.5115 -2.39426 -2.58059
upperback 6.43768 -3.32843 5.0204
thorax 0.23095 -1.8133 7.13912
lowerneck -10.6593 -5.77677 -9.51008
upperneck 31.5181 -9.07384 9.23736
head 13.213 -3.97681 3.94698
rclavicle -3.4191e-014 -1.11319e-014
rhumerus 11.9639 -31.8361 -73.3297
rradius 36.4775
rwrist -8.47476
rhand -35.9486 -22.448
rfingers 7.12502
rthumb -9.06017 -52.2334
lclavicle -3.4191e-014 -1.11319e-014
lhumerus 23.3167 -61.6774 83.7169
lradius 57.5454
lwrist 43.2655
lhand -13.1328 45.7281
lfingers 7.12502
lthumb 12.9652 -1004.69
rfemur -40.8518 -0.75 2.35374
rtibia 30.063
rfoot -7.93061 -6.39251
rtoes 5.96416
lfemur -25.9789 -9.33114 -21.1664
ltibia 25.3139
lfoot -13.7254 -22.9075
ltoes -1.78398
1533
root -3.27521 17.614 -2.07281 16.2768 4.58067 6.45518
lowerback 12.859 -2.37222 -1.87774
upperback 6.30337 -3.20947 5.15903
thorax -0.150275 -1.7242 6.89491
lowerneck -10.6374 -5.90574 -9.37457
upperneck 31.5014 -9.21863 9.03722
head 13.2003 -4.04374 3.82035
rclavicle -2.54444e-014 6.36111e-015
rhumerus 11.7022 -31.2758 -73.5033
rradius 36.4436
rwrist -8.10398
rhand -35.698 -22.3534
rfingers 7.12502
rthumb -8.81836 -52.1491
lclavicle -2.54444e-014 6.36111e-015
lhumerus 21.4881 -61.3356 85.2996
lradius 57.8598
lwrist 44.0243
lhand -14.7433 45.3024
lfingers 7.12502
lthumb 11.4124 -1005.03
rfemur -40.7852 -0.415304 2.78028
rtibia 30.2326
rfoot -8.22948 -7.54713
rtoes 7.7007
lfemur -25.8561 -9.53441 -20.4295
ltibia 24.8878
lfoot -13.3622 -23.3167
ltoes -1.7119
1534
root -3.3419 17.6151 -2.01644 16.3253 5.03637 6.9181
lowerback 12.8964 -2.35396 -1.91699
upperback 6.37702 -3.18991 5.0935
thorax -0.0972168 -1.7156 6.8446
lowerneck -10.8242 -5.99944 -9.42373
upperneck 31.504 -9.31198 9.01186
head 13.2558 -4.08401 3.80026
rclavicle 1.74931e-014 -1.11319e-014
rhumerus 11.863 -30.4786 -73.9592
rradius 36.2324
rwrist -7.79776
rhand -35.5384 -22.1817
rfingers 7.12502
rthumb -8.6644 -51.9839
lclavicle 1.74931e-014 -1.11319e-014
lhumerus 19.7303 -60.6314 86.6596
lradius 58.2728
lwrist 45.0162
lhand -15.8216 44.4001
lfingers 7.12502
lthumb 10.3722 -1005.88
rfemur -40.6108 -0.675067 2.58696
rtibia 30.461
rfoot -8.11046 -8.21748
rtoes 8.34472
lfemur -25.5266 -9.80089 -20.62
ltibia 24.4722
lfoot -12.9865 -23.5917
ltoes -0.86217
1535
root -3.4081 17.6223 -1.95868 16.3863 5.3318 7.30236
lowerback 12.827 -2.24191 -1.90953
upperback 6.49916 -3.04521 5.01444
thorax 0.0439846 -1.64627 6.73068
lowerneck -10.8961 -6.13779 -9.48058
upperneck 31.3712 -9.50525 9.11385
head 13.2491 -4.15757 3.81495
rclavicle 7.95139e-016 -3.18055e-015
rhumerus 12.4926 -30.2591 -74.8294
rradius 35.5271
rwrist -6.88586
rhand -35.2882 -22.1118
rfingers 7.12502
rthumb -8.42287 -51.9238
lclavicle 7.95139e-016 -3.18055e-015
lhumerus 18.0274 -59.971 87.9222
lradius 58.5322
lwrist 45.7934
lhand -16.2756 43.6073
lfingers 7.12502
lthumb 9.93428 -1006.65
rfemur -40.5433 -1.09609 2.58481
rtibia 30.7975
rfoot -7.86845 -8.14425
rtoes 8.28547
lfemur -25.1455 -10.1254 -20.7305
ltibia 23.9893
lfoot -12.6798 -23.5449
ltoes -0.443406
1536
root -3.47528 17.6314 -1.90503 16.5853 5.43819 7.32407
lowerback 12.7473 -2.02416 -1.61399
upperback 6.51303 -2.72654 5.01986
thorax 0.0433079 -1.47891 6.52443
lowerneck -10.9137 -6.32155 -9.4497
upperneck 31.2903 -9.76077 9.11259
head 13.2493 -4.26078 3.76556
rclavicle -3.18055e-015 -1.27222e-014
rhumerus 13.0301 -29.9576 -75.5972
rradius 34.7274
rwrist -6.26654
rhand -34.6881 -21.6142
rfingers 7.12502
rthumb -7.84378 -51.4487
lclavicle -3.18055e-015 -1.27222e-014
lhumerus 16.1256 -59.3175 89.317
lradius 58.7673
lwrist 46.3753
lhand -16.5441 43.3945
lfingers 7.12502
lthumb 9.6752 -1006.85
rfemur -40.7602 -1.36679 2.95045
rtibia 31.2153
rfoot -7.69922 -7.27967
rtoes 9.052
lfemur -24.9547 -10.3317 -20.4322
ltibia 23.4963
lfoot -12.3671 -23.2452
ltoes 0.0307207
1537
root -3.54404 17.6372 -1.85292 16.7642 5.44041 7.36682
lowerback 12.7352 -1.80445 -1.43991
upperback 6.53282 -2.41826 5.05209
thorax 0.024864 -1.32041 6.42138
lowerneck -10.9901 -6.48223 -9.44705
upperneck 31.2591 -9.93146 8.9727
head 13.2656 -4.34475 3.67887
rclavicle 4.6118e-014 -9.54166e-015
rhumerus 13.2204 -29.0141 -76.1054
rradius 34.1641
rwrist -6.08437
rhand -34.0848 -20.7314
rfingers 7.12502
rthumb -7.26147 -50.5868
lclavicle 4.6118e-014 -9.54166e-015
lhumerus 14.2022 -58.4702 90.6216
lradius 59.1398
lwrist 47.1519
lhand -16.1634 44.1465
lfingers 7.12502
lthumb 10.0425 -1006.11
rfemur -40.9773 -1.54945 3.26918
rtibia 31.5796
rfoot -7.50609 -6.55747
rtoes 9.22282
lfemur -24.7956 -10.4987 -20.169
ltibia 23.1112
lfoot -12.0611 -22.9301
ltoes 0.421735
1538
root -3.61116 17.6437 -1.80274 17.1182 5.41548 7.35613
lowerback 12.5135 -1.60423 -1.24774
upperback 6.52146 -2.13571 5.16794
thorax 0.0944062 -1.17747 6.39205
lowerneck -10.9231 -6.58859 -9.53993
upperneck 31.0583 -9.98048 8.78693
head 13.1661 -4.39839 3.6091
rclavicle -1.27222e-014 3.81667e-014
rhumerus 13.4056 -27.7325 -76.5374
rradius 33.6987
rwrist -6.05557
rhand -33.4678 -20.2219
rfingers 7.12502
rthumb -6.66582 -50.097
lclavicle -1.27222e-014 3.81667e-014
lhumerus 12.2829 -57.4318 91.9191
lradius 59.5141
lwrist 48.3703
lhand -16.5647 44.6988
lfingers 7.12502
lthumb 9.65531 -1005.54
rfemur -41.3928 -1.77393 3.60665
rtibia 31.9056
rfoot -7.64063 -6.22184
rtoes 10.6639
lfemur -24.8819 -10.4162 -19.8909
ltibia 22.8186
lfoot -11.8594 -22.8192
ltoes 0.258354
1539
root -3.67729 17.6553 -1.75229 17.4787 5.38938 7.25124
lowerback 12.2609 -1.3874 -0.926666
upperback 6.50176 -1.81901 5.30763
thorax 0.164997 -1.01436 6.31034
lowerneck -10.8213 -6.72004 -9.66461
upperneck 30.8948 -10.0761 8.63539
head 13.0856 -4.47217 3.55356
rclavicle 3.18055e-015 -5.40694e-014
rhumerus 13.7204 -26.6173 -77.129
rradius 33.1203
rwrist -5.39207
rhand -32.6768 -20.4095
rfingers 7.12502
rthumb -5.90216 -50.3073
lclavicle 3.18055e-015 -5.40694e-014
lhumerus 10.4227 -56.3261 93.1164
lradius 59.7718
lwrist 49.7233
lhand -17.9355 44.7647
lfingers 7.12502
lthumb 8.33256 -1005.42
rfemur -41.8576 -2.18619 4.13427
rtibia 32.2407
rfoot -7.58384 -5.85053
rtoes 9.09575
lfemur -24.965 -10.3171 -19.5434
ltibia 22.5852
lfoot -12.167 -22.4418
ltoes -1.179
1540
root -3.74454 17.6583 -1.6972 17.6507 5.40488 7.34702
lowerback 12.2346 -1.16804 -0.740732
upperback 6.5015 -1.51037 5.36867
thorax 0.138747 -0.855467 6.23193
lowerneck -10.6331 -6.86634 -9.75196
upperneck 30.7141 -10.2293 8.54986
head 12.9885 -4.56152 3.51118
rclavicle 3.18055e-015 1.11319e-014
rhumerus 13.7255 -25.1657 -77.5154
rradius 32.6394
rwrist -4.86645
rhand -31.9161 -20.7523
rfingers 7.12502
rthumb -5.16776 -50.6693
lclavicle 3.18055e-015 1.11319e-014
lhumerus 8.37171 -55.1579 94.3959
lradius 60.0034
lwrist 50.6805
lhand -19.1582 44.9838
lfingers 7.12502
lthumb 7.15245 -1005.16
rfemur -42.0688 -2.87423 4.61069
rtibia 32.5633
rfoot -7.12349 -5.03141
rtoes 6.67472
lfemur -24.834 -10.2513 -19.4604
ltibia 22.4181
lfoot -12.4453 -22.1031
ltoes -2.40353
1541
root -3.81675 17.6555 -1.6425 17.6553 5.54063 7.48102
lowerback 12.3709 -0.947332 -0.627234
upperback 6.61624 -1.20672 5.45889
thorax 0.151272 -0.703756 6.23066
lowerneck -10.7313 -7.07697 -9.69297
upperneck 30.6064 -10.4554 8.34513
head 12.9749 -4.67047 3.37865
rclavicle 5.40694e-014 -6.36111e-015
rhumerus 13.8787 -23.6884 -77.9375
rradius 32.148
rwrist -4.42974
rhand -30.7003 -20.1428
rfingers 7.12502
rthumb -3.9937 -50.0851
lclavicle 5.40694e-014 -6.36111e-015
lhumerus 6.65389 -54.088 95.3036
lradius 60.2256
lwrist 51.2446
lhand -20.0167 45.6533
lfingers 7.12502
lthumb 6.32373 -1004.46
rfemur -42.0192 -3.19599 4.89068
rtibia 32.8615
rfoot -7.06218 -4.29365
rtoes 7.35277
lfemur -24.5684 -10.0532 -19.4124
ltibia 22.2632
lfoot -12.1797 -22.2331
ltoes -1.75366
1542
root -3.88551 17.6573 -1.58786 17.5842 5.60375 7.5461
lowerback 12.5846 -0.715875 -0.434088
upperback 6.73526 -0.878536 5.56724
thorax 0.123159 -0.537478 6.20093
lowerneck -10.7015 -7.27088 -9.82926
upperneck 30.4276 -10.6812 8.34491
head 12.9308 -4.78229 3.36242
rclavicle 1.43125e-014 4.92986e-014
rhumerus 14.0915 -22.2882 -78.4635
rradius 31.603
rwrist -3.68232
rhand -29.3073 -19.7013
rfingers 7.12502
rthumb -2.64852 -49.6646
lclavicle 1.43125e-014 4.92986e-014
lhumerus 4.90481 -53.0166 96.0887
lradius 60.4615
lwrist 52.1096
lhand -20.9061 45.924
lfingers 7.12502
lthumb 5.46503 -1004.17
rfemur -41.9329 -3.47962 5.24089
rtibia 33.1859
rfoot -7.08312 -3.49197
rtoes 9.59216
lfemur -24.2246 -9.94828 -19.2877
ltibia 22.1068
lfoot -11.9973 -22.2092
ltoes -1.31015
1543
root -3.94883 17.6666 -1.52886 17.5611 5.63599 7.62209
lowerback 12.6934 -0.490294 -0.2184
upperback 6.81335 -0.557076 5.66739
thorax 0.109757 -0.373508 6.14653
lowerneck -10.5018 -7.42552 -9.77253
upperneck 30.2118 -10.8363 8.1263
head 12.7983 -4.87252 3.24461
rclavicle -3.02153e-014 -7.95139e-015
rhumerus 14.2523 -20.8432 -79.0049
rradius 31.0693
rwrist -3.22151
rhand -28.0461 -19.6812
rfingers 7.12502
rthumb -1.43045 -49.6562
lclavicle -3.02153e-014 -7.95139e-015
lhumerus 3.13202 -52.0601 96.7734
lradius 60.7313
lwrist 53.5523
lhand -20.6564 48.2482
lfingers 7.12502
lthumb 5.70612 -1001.85
rfemur -41.8734 -3.75508 5.51939
rtibia 33.5228
rfoot -7.08373 -2.88121
rtoes 10.229
lfemur -23.9225 -10.0198 -19.1653
ltibia 21.9774
lfoot -11.9967 -21.8909
ltoes -1.80736
1544
root -4.01483 17.6729 -1.47457 17.689 5.73409 7.78942
lowerback 12.6577 -0.262801 -0.0482184
upperback 6.87778 -0.242873 5.69766
thorax 0.161202 -0.21366 6.04087
lowerneck -10.4082 -7.62117 -9.56429
upperneck 30.0473 -11.0953 7.95314
head 12.7139 -4.98264 3.10125
rclavicle 3.18055e-015 1.74931e-014
rhumerus 14.3566 -19.3436 -79.5885
rradius 30.6384
rwrist -3.27673
rhand -27.0219 -19.4194
rfingers 7.12502
rthumb -0.441239 -49.3987
lclavicle 3.18055e-015 1.74931e-014
lhumerus 1.63427 -51.281 97.1337
lradius 60.7185
lwrist 55.0312
lhand -21.3631 48.7378
lfingers 7.12502
lthumb 5.02378 -1001.34
rfemur -41.9938 -4.13886 5.72768
rtibia 33.8795
rfoot -7.04358 -2.50207
rtoes 7.58441
lfemur -23.7897 -10.1358 -19.084
ltibia 21.8191
lfoot -11.6064 -21.6134
ltoes -1.59373
1545
root -4.09064 17.6752 -1.43158 17.9275 6.01491 8.05042
lowerback 12.65 -0.0917741 -0.100044
upperback 6.85363 -0.0188523 5.83768
thorax 0.117599 -0.103791 6.19324
lowerneck -10.3267 -7.82147 -9.62196
upperneck 29.9294 -11.3377 7.88711
head 12.6759 -5.10179 3.04762
rclavicle 3.18055e-015 2.54444e-014
rhumerus 14.4388 -17.4992 -80.0093
rradius 30.2174
rwrist -3.5454
rhand -25.8846 -19.3389
rfingers 7.12502
rthumb 0.657204 -49.3176
lclavicle 3.18055e-015 2.54444e-014
lhumerus 0.283663 -50.4365 97.4074
lradius 60.5064
lwrist 56.5979
lhand -22.7985 48.3891
lfingers 7.12502
lthumb 3.63773 -1001.66
rfemur -42.2155 -4.5472 5.84958
rtibia 34.2777
rfoot -6.94641 -2.13696
rtoes 6.17549
lfemur -23.8231 -10.0609 -19.0737
ltibia 21.6348
lfoot -11.1518 -21.7607
ltoes -1.91128
